<svg width="683" height="683" viewBox="0 0 683 683" fill="none" xmlns="http://www.w3.org/2000/svg">
<g clip-path="url(#clip0_25_12)">
<path d="M458.133 16.6667C457.6 20.2667 455.333 25.2 452.667 28.9334C450.133 32.5334 446.533 37.8667 444.533 40.9334C433.6 58.6667 435.6 84.1334 449.333 101.333C458 112.267 460.667 124 456.8 134.8C455.867 137.333 452.267 143.6 448.8 148.533C442.4 157.467 437.333 170.133 437.333 177.467V181.333H447.867H458.4L459.2 175.333C459.733 171.733 462 166.8 464.667 163.067C472.933 151.6 475.867 146.133 477.867 138C482.533 120.267 479.2 105.467 466.667 88.6667C460.267 80.1334 458.133 73.4667 459.067 64.6667C459.867 56.5334 462 52 469.333 42.2667C475.067 34.8 478.133 27.0667 479.467 16.9334L480.4 10.6667H469.6H458.933L458.133 16.6667Z" fill="white"/>
<path d="M522.133 16.6667C521.6 20.2667 519.333 25.2 516.667 28.9334C514.133 32.5334 510.533 37.8667 508.533 40.9334C497.6 58.6667 499.6 84.1334 513.333 101.333C522 112.267 524.667 124 520.8 134.8C519.867 137.333 516.267 143.6 512.8 148.533C506.4 157.467 501.333 170.133 501.333 177.467V181.333H511.867H522.4L523.2 175.333C523.733 171.733 526 166.8 528.667 163.067C536.933 151.6 539.867 146.133 541.867 138C546.533 120.267 543.2 105.467 530.667 88.6667C524.267 80.1334 522.133 73.4667 523.067 64.6667C523.867 56.5334 526 52 533.333 42.2667C539.067 34.8 542.133 27.0667 543.467 16.9334L544.4 10.6667H533.6H522.933L522.133 16.6667Z" fill="white"/>
<path d="M344.667 238L341.333 241.2V312.667V384H352H362.667V320V256H480H597.333V412.8C597.333 532.133 596.933 571.067 595.733 575.2C593.6 582.533 582.533 593.6 575.2 595.733C571.2 596.933 552.267 597.333 506.8 597.333H444L451.333 582.667C455.333 574.667 458.667 566.533 458.667 564.667C458.667 562.8 457.2 559.733 455.333 558L452.133 554.667H396.4H340.667L340.533 540.267C340.4 528.933 339.6 523.867 336.8 515.333C328.933 490.933 312.533 471.467 288.8 458.533L282.133 454.933L289.733 447.6C318.667 419.867 364.8 420 393.333 448.133C402.133 456.667 406.933 464.4 411.867 477.2C414.933 485.333 415.2 488 415.733 514.933L416.267 544H426.933H437.6L436.933 514.4C436.267 480.8 435.333 475.733 426.267 457.333C421.867 448.4 418.4 443.6 409.333 434.533C396.8 421.867 386 415.067 369.6 409.6C360.533 406.533 357.2 406.133 341.333 406.133C325.733 406.267 322 406.667 313.067 409.6C297.6 414.667 285.867 421.867 274.533 433.2C269.067 438.8 263.6 444.667 262.533 446.267C260.8 448.933 259.867 449.2 252.4 448.4C247.067 447.867 244 447.067 244 446C244 445.067 241.867 440.133 239.333 435.067C233.6 423.6 225.6 415.867 213.6 410.267L204.667 406H181.333H158L149.067 410.267C137.067 415.867 129.067 423.6 123.333 435.067C120.8 440.133 118.667 445.067 118.667 446C118.667 447.067 115.2 448 108.533 448.533C86.4 450.533 66.8 459.867 50.2667 476L39.8667 486.267L36.5333 479.867C24.5333 456.133 18 414.933 23.2 396.667C28.5333 378.4 43.2 363.6 66.5333 353.067C84.9333 344.667 97.6 342.4 130.4 341.733C149.733 341.2 164.667 341.6 173.067 342.667C220.533 348.667 256 376.933 256 408.8C256 415.2 255.067 414.667 271.067 416.667L277.333 417.467V409.733C277.333 399.067 274.133 386.4 268.933 376.8C260.8 361.467 239.6 342.267 222 334.533L215.6 331.733L222.933 328.8C244.133 320.133 266.267 302 273.867 287.067C280.533 273.733 278.267 269.733 260.933 264.133C240.8 257.867 224.667 255.467 206.8 256.4C178.8 257.867 157.6 265.6 143.733 279.333C139.6 283.467 135.467 288.667 134.533 290.8C133.333 293.733 132.4 294.533 130.8 293.867C121.467 289.733 114.267 288.133 105.733 288H96V298.667V309.333H105.067C114.667 309.333 121.2 312 124 317.2C125.333 319.867 125.067 320 118.4 320C109.067 320 88.1333 323.333 77.3333 326.4C55.4667 332.8 39.0667 342.267 24 357.333C4.8 376.4 -0.8 391.2 0.4 419.333C1.6 446.4 8.93333 473.6 21.3333 496.933L27.7333 509.2L25.0667 517.6C23.0667 523.6 22.2667 530 22.1333 540.267L22 554.667H14.2667C7.86667 554.667 6 555.2 3.33333 558C-2.26667 563.467 -1.2 567.333 10.6667 583.067L21.3333 597.333H14C4.53333 597.333 0 601.067 0 609.067C0 640.133 21.7333 668.667 53.3333 679.467C60.4 681.867 70.5333 682 341.333 682C612.133 682 622.267 681.867 629.333 679.467C659.733 669.2 679.6 644.4 682.267 613.733C682.933 604.8 682.8 604 679.6 600.8L676.133 597.333H642.267H608.533L613.2 587.867C617.733 578.8 618 577.6 618.4 561.333L618.933 544.4L630.933 543.733C641.067 543.067 644.267 542.267 652.533 538.133C664.267 532.4 672 524.533 677.733 512.267L682 503.333V415.867V328.533L677.067 318.4C667.733 299.733 652.133 289.6 630.533 288.267L618.667 287.6V264.4C618.667 241.6 618.667 241.2 615.333 238L612.133 234.667H480H347.867L344.667 238ZM201.333 278.933C186.4 285.6 172.133 292.933 162.4 299.067C155.867 303.2 150.667 306 150.667 305.333C150.667 304.667 152.667 301.6 155.067 298.4C162.4 288.8 176.533 281.733 194.4 278.667C203.2 277.2 205.2 277.333 201.333 278.933ZM244 291.333C240.667 295.333 224.267 305.333 214.533 309.2C205.067 312.933 181.067 318.667 174.4 318.667C172.133 318.667 173.2 317.467 179.333 313.733C195.6 303.867 216.933 295.333 234.8 291.333C245.867 288.933 246 288.933 244 291.333ZM639.2 310.933C646.533 313.067 657.6 324.133 659.733 331.467C662 339.333 662 492.667 659.733 500.533C657.6 507.867 646.533 518.933 639.2 521.067C636.133 522 630.267 522.667 626.133 522.667H618.667V416V309.333H626.133C630.267 309.333 636.133 310 639.2 310.933ZM201.867 428.267C207.867 430 221.333 442.267 221.333 445.867C221.333 447.733 216.8 448 181.333 448C145.867 448 141.333 447.733 141.333 445.867C141.333 442.667 154.8 430 160 428.4C166.4 426.4 195.067 426.267 201.867 428.267ZM106.667 476.933C95.0667 490 85.4667 513.467 85.3333 528.933V533.333H96H106.667V528.933C106.667 515.867 114.4 498.667 124.933 488.4C133.2 480.267 150.667 471.2 160.667 469.733L167.333 468.933L160.267 476.8C148.4 490 138.8 513.333 138.667 528.933V533.333H149.333H160V528.933C160 515.867 167.733 498.667 178.267 488.4C186.267 480.533 203.6 471.333 213.2 469.867L219.067 468.933L212.133 478C200.933 492.667 194.533 508 192.533 525.2L191.6 533.333H202.267H212.8L214.4 523.733C216.533 511.467 223.467 497.067 231.6 488C239.333 479.333 252.4 470.667 257.467 470.667C262.267 470.667 276.533 475.867 284.267 480.4C291.867 484.8 304.533 497.467 308.933 505.067C316.8 518.533 321.6 538.667 319.467 549.867L318.533 554.667H181.467H44.2667L43.4667 551.6C40.9333 542.133 43.8667 525.333 50.6667 511.2C61.4667 488.667 87.0667 470.933 111.067 469.467C112.933 469.333 111.733 471.333 106.667 476.933ZM425.333 586.667L420 597.333H234H48.1333L40 586.667L31.8667 576H231.333H430.667L425.333 586.667ZM660 620.533C660 621.467 657.867 626.533 655.333 631.6C649.6 643.067 641.6 650.8 629.6 656.4L620.667 660.667H341.333H62L53.0667 656.4C41.0667 650.8 33.0667 643.067 27.3333 631.6C24.8 626.533 22.6667 621.467 22.6667 620.533C22.6667 618.933 72.9333 618.667 341.333 618.667C609.733 618.667 660 618.933 660 620.533Z" fill="white"/>
<path d="M554.667 288V298.667H565.333H576V288V277.333H565.333H554.667V288Z" fill="white"/>
<path d="M554.667 330.667V341.333H565.333H576V330.667V320H565.333H554.667V330.667Z" fill="white"/>
<path d="M309.333 448V458.667H320H330.667V448V437.333H320H309.333V448Z" fill="white"/>
<path d="M352 448V458.667H362.667H373.333V448V437.333H362.667H352V448Z" fill="white"/>
</g>
<defs>
<clipPath id="clip0_25_12">
<rect width="682.667" height="682.667" fill="white"/>
</clipPath>
</defs>
</svg>
