<svg width="683" height="683" viewBox="0 0 683 683" fill="none" xmlns="http://www.w3.org/2000/svg">
<path d="M263.733 84C260.933 86.1333 259.467 89.8667 256.133 103.6L251.867 120.667L242.667 125.6C230.933 132 210.8 147.2 194.933 161.733L182.667 172.933L170.133 173.867C143.467 175.867 112.267 184.533 95.3333 194.8C91.2 197.333 84.2667 203.067 80 207.6C67.4667 220.933 64.8 233.2 74 235.467C80.1333 236.933 83.4667 235.067 87.7333 227.467C99.2 207.333 130.4 195.2 180.667 191.2L191.2 190.4L201.333 180.8C221.067 161.733 240.4 147.2 257.067 138.667C261.467 136.533 265.6 133.867 266.4 132.933C268.133 130.933 277.333 94.8 277.333 90.2667C277.333 83.7333 268.933 79.8667 263.733 84Z" fill="white"/>
<path d="M412 82.4C408.267 83.6 405.333 87.0667 405.333 90.2667C405.333 95.3333 414.667 131.2 416.4 132.933C417.333 133.733 424.267 137.6 432 141.6C448.933 150.133 464 160.8 482.933 177.867L497.067 190.533L508.267 191.467C543.2 194 572.8 203.733 587.2 217.067C589.2 219.067 592.8 223.867 594.933 227.733C599.2 235.067 602.533 236.933 608.667 235.467C618 233.067 615.2 220.933 602.4 207.2C585.6 189.2 558.267 178.267 521.467 174.667C512.933 173.733 505.333 172.667 504.533 172.267C503.733 171.733 497.333 166.267 490.4 160.267C474.133 145.867 457.067 133.733 442.4 126C429.467 119.2 431.2 121.867 425.333 98.6667C421.733 84.6667 418.267 80.4 412 82.4Z" fill="white"/>
<path d="M534.8 122.133C533.2 124.133 532 126.4 532 127.333C532 128.267 533.2 130.533 534.8 132.533C539.867 138.933 550.667 135.467 550.667 127.333C550.667 119.2 539.867 115.733 534.8 122.133Z" fill="white"/>
<path d="M233.333 180C230.133 183.2 229.867 189.6 232.8 192.533C235.2 195.067 232 194.267 278.667 204.533L316 212.933L325.867 222.4C338.8 234.933 339.867 234.933 352.667 222.533L362.4 213.2L403.467 204C433.2 197.333 445.067 194.133 446.267 192.4C449.333 188.4 448.4 181.6 444.533 179.2C441.333 177.067 439.6 177.333 397.6 186.533L354 196.267L347.333 202.8C343.6 206.4 340 209.333 339.333 209.333C338.667 209.333 335.067 206.4 331.333 202.8L324.667 196.267L282.267 186.8C258.933 181.6 238.933 177.333 237.867 177.333C236.8 177.333 234.8 178.533 233.333 180Z" fill="white"/>
<path d="M336.133 288.933C334 290.8 331.2 299.2 324.8 322.4C315.467 356.133 313.333 360.533 304 365.333C299.067 367.867 296 368 239.733 368H180.667L164.267 350.667C155.2 341.067 146.4 332.933 144.667 332.533C138.4 330.933 132.133 337.867 134.4 343.867C134.933 345.333 144 355.6 154.533 366.667L173.6 386.8L238.533 386.4C301.733 386 303.467 385.867 309.6 383.067C317.867 379.333 327.6 370.133 331.2 362.667C332.933 359.333 335.6 351.6 337.333 345.333C339.067 339.067 340.8 333.467 341.333 332.933C341.867 332.4 343.867 338.267 346 346.133C350.4 362.533 354.933 370.267 364.667 377.6C376.533 386.667 376.667 386.667 451.2 386.667H518L537.067 367.067C547.467 356.133 556.4 346 556.8 344.267C558.933 336.267 552.8 330.133 545.733 333.333C543.733 334.267 535.067 342.4 526.667 351.467L511.333 367.867H447.467L383.6 368L377.867 364.667C374.4 362.667 370.8 359.067 368.933 355.6C367.2 352.533 362.267 337.067 358 321.333C353.067 302.933 349.333 291.6 347.6 289.6C344.267 286.133 340 285.867 336.133 288.933Z" fill="white"/>
<path d="M143.2 393.067C137.867 396.533 139.333 410.8 148.533 444.133C155.467 469.333 161.467 484.267 178.133 517.6L193.333 548V569.867C193.333 583.2 193.867 593.2 194.8 595.067C197.867 601.733 207.2 602.4 210.533 596.133C211.467 594.533 212 583.6 212 568.533V543.6L197.6 515.467C189.6 500 180.667 481.333 177.6 474C172.267 460.8 161.867 426.933 162.933 425.867C163.2 425.6 168.267 427.467 174.133 430L184.667 434.533L185.6 442.533C187.2 457.2 198.8 478.933 213.2 494.267C217.6 498.933 219.467 500 223.2 500C226.533 500 228.4 499.2 229.867 497.067C233.067 492.533 232.4 488.533 227.6 483.067C219.733 474 215.067 467.467 209.867 458C204.933 449.2 204.667 448 204.4 436.267C204.267 429.333 203.467 423.067 202.667 422C201.867 420.933 195.6 418.267 188.933 416C173.2 410.8 164.133 405.6 157.867 398C153.867 393.333 151.867 392 148.667 392C146.533 392 144 392.533 143.2 393.067Z" fill="white"/>
<path d="M530.4 399.2C522.533 406.8 512.133 411.6 491.867 417.2C478.533 420.933 478.133 421.6 478.533 435.067C478.8 445.6 478.533 446.667 473.467 456.667C470.533 462.533 464.267 472.133 459.467 477.867C450.4 488.8 449.2 492 452.8 497.067C456.4 502.267 462.8 501.067 469.6 493.867C484.267 478.267 495.6 456.933 496.933 442.4L497.733 434.8L504.8 432.667C508.667 431.6 514.533 429.467 517.867 428C521.333 426.533 524 425.867 524 426.4C524 428.533 514.933 454.267 510.133 465.733C502.667 483.6 495.467 497.467 482.533 518.267C465.333 546 466.667 541.6 466.667 569.733C466.667 591.733 466.933 594.667 469.067 597.467C472.533 601.6 479.467 601.6 482.933 597.467C485.067 594.667 485.333 591.733 485.333 571.333V548.267L498.133 527.867C517.333 496.933 528 473.6 541.333 433.333C550.4 405.6 551.6 399.733 548.8 395.467C544.933 389.467 539.333 390.667 530.4 399.2Z" fill="white"/>
<path d="M332.933 471.733C330.933 473.867 330.667 478.8 330.667 514.133C330.667 536 331.2 554.667 331.733 555.467C333.067 557.467 338 560 340.533 560C341.733 560 343.867 558.8 345.333 557.333C347.867 554.8 348 552.933 348 514.267C348 476.667 347.867 473.6 345.6 471.6C342.267 468.667 335.6 468.8 332.933 471.733Z" fill="white"/>
<path d="M108.4 533.333C105.333 534.533 102.667 538.533 102.667 541.867C102.667 543.067 104.8 546.4 107.467 549.333L112.267 554.667L107.467 560.267C102.267 566.267 101.6 569.867 104.8 574.4C108 579.067 114.8 578.4 121.067 572.667L126.267 568.133L130.667 572.667C135.867 578 142.133 578.933 145.733 574.933C149.333 571.067 148.533 565.867 143.467 560.267L138.933 555.333L143.6 550.267C149.2 544.133 149.333 538.4 143.867 534.267C139.6 531.2 136.4 532 129.867 537.6L125.2 541.733L120.933 537.733C116 532.933 112.4 531.733 108.4 533.333Z" fill="white"/>
<path d="M332.933 571.733C330 575.067 330.133 581.733 333.067 584.4C336.4 587.333 343.067 587.2 345.733 584.267C348.667 580.933 348.533 574.267 345.6 571.6C342.267 568.667 335.6 568.8 332.933 571.733Z" fill="white"/>
</svg>
