<svg width="683" height="683" viewBox="0 0 683 683" fill="none" xmlns="http://www.w3.org/2000/svg">
<path d="M301.333 0.799956C249.333 6.79996 246.4 7.46662 146.667 36.2666C103.2 48.8 78.8 56.4 72.2666 59.7333C48.5333 71.4666 31.6 91.7333 22.5333 119.333C19.6 128.267 19.4666 130.933 18.9333 175.467C18.5333 214 18.8 224.533 20.5333 234.533C24.6666 258.133 35.4666 279.333 52.1333 296.133C61.8666 306 65.2 311.733 80 344C102.133 392.4 105.467 407.333 126 548.667C132.267 591.867 138 629.733 138.8 632.667C144.667 654.4 165.067 673.867 188.133 679.333C200.933 682.267 480.4 682.267 493.2 679.333C516.267 673.867 535.067 656.267 542.4 633.333C543.333 630.8 548.8 595.067 554.667 554C576.8 399.867 578.533 392.8 607.333 332C618.533 308.267 620.4 305.067 628.267 297.333C642.8 282.667 652.133 267.2 658.267 247.067C661.867 235.467 661.867 234.933 662.4 188C662.933 136 662.267 127.067 656 110.933C650.667 97.3333 642.533 85.4666 631.2 74.8C614.533 59.2 609.2 57.0666 528.267 34C419.6 3.06662 409.733 1.19996 347.333 0.666623C324.667 0.399956 303.867 0.53329 301.333 0.799956ZM397.6 17.2C409.067 18.8 425.867 21.4666 434.933 23.4666C460.933 28.9333 593.467 67.2 603.733 72.2666C617.467 78.9333 632.8 94.8 639.733 109.333C648.4 127.733 648.667 129.733 648.533 182C648.533 225.467 648.267 229.333 645.6 239.333C637.333 269.867 618.133 293.2 590.133 306.8C570.533 316.4 567.6 316.667 494 316.667C420.533 316.667 421.733 316.8 400.133 306.4C390.933 302 386.667 298.8 376.667 288.8C366.133 278.4 363.467 274.8 358.267 264C349.067 245.067 348 237.733 348 192.667C348 168.933 347.467 153.467 346.667 151.867C344.933 148.667 338.4 148.4 335.467 151.467C333.6 153.333 333.333 158.667 333.333 192.4C333.467 234 332.667 241.733 327.067 256C315.733 284.667 292.133 305.467 261.333 314.267C253.467 316.4 246.667 316.667 187.333 316.667C113.733 316.667 110.8 316.4 91.2 306.8C65.2 294.267 47.6 274.133 37.7333 246L34 235.333L33.6 185.733C33.0666 130.533 33.4666 127.733 41.8666 110C49.8666 93.2 63.6 79.4666 80.4 71.6C88.4 67.7333 219.467 29.6 241.467 24.5333C259.067 20.5333 287.333 16.2666 306.533 14.6666C328.267 12.9333 373.6 14.1333 397.6 17.2ZM344.533 268.8C349.6 279.733 358.4 291.467 369.067 301.6C379.467 311.333 389.6 317.733 403.2 323.2C420.933 330.267 424.667 330.667 495.067 330.667C564.8 330.667 570 330.267 588.667 323.467L596.933 320.533L580.4 354.533C571.333 373.2 561.2 392.267 557.867 396.8C543.333 417.2 518.8 431.333 494.8 432.933C483.6 433.733 478.667 436 478.667 440.267C478.667 445.067 482.533 448 488.533 448C510.933 448 537.6 437.333 554.933 421.467L562.133 414.933L559.733 426.4C558.533 432.8 551.2 480.933 543.467 533.6C531.467 615.467 529.067 630.133 526.133 636.267C519.6 650 508.8 659.6 493.867 664.533C487.733 666.533 474.8 666.667 338.533 666.4L190 666L181.067 661.733C169.867 656.4 160.933 647.6 155.867 636.8C151.6 627.733 152.133 630.8 133.333 501.333C128.133 465.867 122.933 432.267 122 426.8C120.933 421.333 120.133 416.667 120.4 416.533C120.533 416.4 124.267 419.2 128.667 422.8C144.8 436.267 162.933 444.133 184 446.8C194.533 448.133 196.4 448.133 199.333 446.133C203.2 443.6 203.733 438.667 200.533 435.467C199.333 434.133 196.133 433.333 192.267 433.333C176 433.2 152.933 424.533 139.733 413.6C126.4 402.533 121.733 395.2 103.2 358C93.3333 338.267 85.3333 321.6 85.3333 321.067C85.3333 320.533 87.6 321.067 90.4 322.267C93.0666 323.467 99.6 325.6 104.667 327.2C113.467 329.733 118 329.867 181.867 330.4C256 330.8 261.2 330.4 279.6 323.067C291.867 318.133 307.333 307.733 316.933 297.733C325.467 288.933 336.133 273.2 338.8 265.6C339.6 263.2 340.4 261.333 340.667 261.333C340.933 261.333 342.667 264.667 344.533 268.8Z" fill="white"/>
<path d="M186.667 80C185.2 81.4667 184 83.6 184 84.8C184 88.6667 192.267 98.8 199.333 103.467C211.333 111.467 214.8 112 256.133 112C288 112 293.467 111.733 295.2 109.867C297.733 107.333 297.867 104 295.733 100.933C294.267 99.0667 289.333 98.8 256.667 98.4C211.467 97.8667 210.667 97.6 197.067 81.6C193.067 76.6667 190.4 76.2667 186.667 80Z" fill="white"/>
<path d="M482.133 84.5333C478.667 88.6667 473.2 93.0667 469.6 94.9333C463.6 97.8667 462 98 426 98.4C402.8 98.6667 388 99.4667 387.067 100.267C384.8 102.133 384.933 108.667 387.2 110.533C388.667 111.733 399.867 112 428.933 111.733L468.667 111.333L476.8 107.067C487.6 101.467 497.333 90.8 497.333 84.5333C497.333 80.1333 494.667 77.3333 490.267 77.3333C489.2 77.3333 485.6 80.5333 482.133 84.5333Z" fill="white"/>
<path d="M71.3333 193.333C67.7333 197.2 69.0666 225.333 73.3333 236.667C81.3333 257.6 97.4666 272.533 118 278C127.467 280.4 146.8 280.667 149.067 278.4C151.2 276.267 151.067 269.733 149.067 268.4C148.133 267.867 141.2 266.667 133.867 265.867C111.6 263.467 97.0666 254.133 88.6666 236.667C85.2 229.6 84.8 226.8 84.1333 211.867C83.3333 194 82.1333 190.667 76.6666 190.667C75.0666 190.667 72.6666 191.867 71.3333 193.333Z" fill="white"/>
<path d="M584.667 248.667C569.2 264.4 560.667 266.533 515.2 266.667C485.2 266.667 484 266.933 484 273.333C484 279.867 484.8 280 521.333 280C558 280 564.533 279.2 577.067 272.8C584.8 268.933 596.133 258.933 600 252.667C602.267 249.067 602.533 247.6 601.333 245.467C600.133 242.933 596 240 594 240C593.6 240 589.333 243.867 584.667 248.667Z" fill="white"/>
<path d="M338.667 382.4C333.867 383.867 333.333 386.8 333.333 410.267V433.333H303.067C286.267 433.333 270.4 432.667 267.733 432C259.867 429.733 251.733 422.8 247.2 414.133C242.267 405.067 239.733 403.067 235.2 405.2C230.4 407.333 230 412 233.867 419.733C238.4 428.533 243.867 434.8 251.733 439.733C263.067 447.067 269.2 448 302.933 448H333.333V481.333V514.667H302.8C269.333 514.667 265.2 514 256.133 506.8C253.333 504.533 249.2 499.2 246.8 494.8C242.4 486.4 239.2 484.267 234.667 486.667C230.4 488.933 230.133 493.6 233.867 501.067C238.4 509.867 243.867 516.133 251.733 521.067C263.067 528.4 269.2 529.333 302.933 529.333H333.333V562.667V596H302.933C269.467 596 264.4 595.2 255.867 588C253.2 586 249.2 580.533 246.8 576.133C242.8 568.533 242.133 568 237.867 568C234.267 568 232.933 568.667 231.733 571.333C228.4 578.8 242.933 598.8 256.267 605.067C266.667 609.867 272.667 610.667 303.733 610.667H333.333V617.733C333.333 625.6 335.867 629.333 341.067 629.333C345.867 629.333 348 625.733 348 618V610.933L381.733 610.4L415.467 610L424.267 605.6C443.2 596.267 457.6 571.467 445.733 568.533C441.067 567.333 438.8 569.067 434.933 576.133C430.8 584.133 426 588.8 418.133 592.667C411.6 596 410.933 596 379.733 596H348V562.8V529.467L381.733 529.067L415.467 528.667L424.267 524.267C434.133 519.467 443.333 510.267 448 500.667C451.467 493.6 451.067 489.333 446.933 487.2C442.133 484.8 438.667 486.533 436 492.533C432.8 500.133 427.467 506 420.133 510.4L414 514L381.067 514.4L348 514.8V481.467V448.133L381.067 447.733C418.933 447.2 423.067 446.267 435.467 435.467C443.467 428.4 451.333 414.8 450.133 410C448.4 403.2 438.4 404.133 436 411.2C433.867 417.867 426.133 426 418.4 429.867C411.6 433.333 411.2 433.333 379.733 433.333H348V410.267C348 386.8 347.467 384 342.667 382.4C341.6 382 339.733 382 338.667 382.4Z" fill="white"/>
</svg>
