<svg width="683" height="683" viewBox="0 0 683 683" fill="none" xmlns="http://www.w3.org/2000/svg">
<g clip-path="url(#clip0_64_55)">
<path d="M426 24.6667C418 25.7333 388.533 27.2 360.667 27.8667C332.8 28.6667 308.133 29.7333 305.867 30.4C291.733 34.6667 285.6 40.4 271.467 61.7333C264.667 72.1333 254.133 86.9333 248 94.6667C231.733 114.8 198 148.133 156.667 184.8C115.2 221.467 86.9333 249.2 70.2666 269.6C28.4 320.533 6.66665 372.533 1.06665 434.267C-0.80002 455.2 0.39998 464.133 7.06665 476.667C14.4 490.4 46.9333 520.667 67.3333 532.8C77.6 538.933 83.0666 540.8 104 545.867C128.8 552 151.467 559.067 198.667 575.733C253.6 594.933 269.333 599.6 297.333 604.8C315.333 608.267 358.133 608.133 376.667 604.8C406.933 599.333 437.333 588.4 472.267 570.4C483.867 564.4 493.6 559.867 493.733 560.133C494 560.4 495.2 565.467 496.533 571.333C502.133 595.733 512 618.8 524.8 638C536.8 655.867 542.4 660.8 548.933 659.2C557.2 657.2 582.8 637.067 599.6 619.6C628.4 589.333 647.467 556.8 662.133 512.667C682.133 451.733 687.733 378 677.867 305.333C675.2 286.267 673.067 281.067 666.667 279.6C657.333 277.467 600.4 278 582.667 280.4C527.467 288.133 480.933 306.933 439.467 338.4L434.267 342.267L424.8 338C389.2 321.6 349.733 318.4 313.333 328.933C293.2 334.667 265.467 350.267 249.467 364.8C245.467 368.4 242.533 370.667 242.8 370C243.2 369.2 246.267 362.933 249.733 356C258.533 338.4 265.067 317.467 275.333 272.8C288.533 215.733 297.067 192.267 313.333 168.667C323.867 153.6 329.867 148.533 340 146.133C349.333 144 350.667 144.533 350.667 150.533C350.667 152.4 352.933 155.867 356.4 159.333C363.6 166.533 372.133 168.667 386 166.8C394.933 165.467 395.6 165.6 400.267 168.8C410.133 175.733 423.467 177.867 434.8 174.4C439.2 173.2 440.4 173.2 442.4 175.067C446.133 178.533 454.133 181.333 459.867 181.333C463.467 181.333 469.467 183.467 478.933 188C513.867 204.933 536 199.733 536 174.533C536 162.4 532.933 154.533 524.8 145.6L517.867 138L520.267 133.333C524.8 124.533 523.6 117.733 514.133 99.6C509.467 90.6667 501.067 74.2667 495.333 63.3333C483.067 39.6 481.333 36.9333 474.267 31.8667C463.6 24.1333 448.267 21.8667 426 24.6667ZM454.533 45.3333C461.6 47.3333 464.933 51.3333 474.133 69.7333C481.733 84.6667 482.4 86.5333 479.333 84.5333C471.467 79.3333 462.667 87.3333 462.667 99.7333C462.667 102.933 465.067 112.8 468 121.867C471.867 133.6 473.333 140.533 473.333 146.267C473.333 153.733 472.933 154.667 469.2 157.867C464.667 161.733 463.6 162 460 160C457.867 158.8 457.6 158 458.667 155.2C461.2 148.667 460.133 138.8 455.2 123.733C450.267 108.667 450 103.733 452.667 90C454.667 80.2667 441.067 74.2667 434.8 82.1333C431.2 86.8 428.933 98.8 430 107.6C430.533 111.6 432.533 120.267 434.667 126.667C440.8 145.6 440.667 151.333 434 154.133C427.867 156.667 422 156.533 417.2 153.733C413.867 151.733 413.333 150.667 413.333 145.333C413.333 142 411.867 133.6 410 126.667C406 110.933 405.867 107.867 409.733 101.333C412.4 96.4 412.533 95.7333 410.667 92.4C405.467 83.0667 396.933 83.4667 390.133 93.0667C384.4 101.067 384 112.933 388.533 131.333C390.267 138.667 391.467 144.933 391.2 145.2C390.933 145.6 387.067 146.133 382.667 146.4C373.2 147.067 371.6 145.2 375.2 137.867C379.067 129.733 377.867 123.733 371.867 120.667C368.4 118.8 366.533 119.067 349.333 122.8C338.933 125.067 330.4 126.8 330.267 126.533C328.8 124.267 316.4 109.6 314.8 108.267C311.733 105.733 304.8 106.267 301.6 109.333C296.533 114.133 297.6 119.867 305.333 129.2L312.133 137.2L302.933 148.933C281.333 176.533 271.067 201.067 258 256.667C244.133 315.2 239.6 330.267 229.467 350.4C214.933 379.333 190.267 401.733 159.067 414.133C152.667 416.8 146.267 420.133 145.067 421.6C141.467 425.733 142 432.533 146.133 435.867C150.933 439.733 154.8 439.333 167.733 434.133C182.8 427.867 194.267 421.2 207.467 411.2C213.867 406.4 220 402.667 221.733 402.667C226.533 402.667 238.533 398.8 246.667 394.667C250.667 392.533 259.733 386 266.667 380C286.4 363.067 300.667 354.4 319.467 348.133C344.267 339.867 376.133 341.2 404.4 351.733C421.067 358 445.2 371.867 463.867 385.867C474.933 394.267 479.733 395.2 484.933 390.4C487.067 388.4 488 386 488 382.4C488 376.267 483.867 371.867 467.733 360.933C462 357.067 457.467 353.6 457.333 353.067C457.333 351.333 481.867 335.867 497.333 328.133C524.8 314.133 558.933 304 592.667 299.867C605.733 298.267 656.533 297.333 657.733 298.667C659.867 300.8 661.6 346.4 660.933 380.267C659.6 447.333 649.6 495.2 627.2 542C610.4 577.333 583.733 610.133 555.333 630.533L549.467 634.8L543.6 626.8C530.933 609.733 521.067 584.4 515.333 554.4C511.733 535.467 509.867 532 503.067 532C501.333 532 491.2 536.8 480.667 542.8C407.867 583.6 350.933 594.667 286.667 580.4C267.333 576.133 252.4 571.467 206.667 555.333C160.667 538.933 138.8 532.133 109.467 524.533C91.7333 520 84.4 517.467 78.2666 513.733C67.0666 506.933 49.3333 491.867 36.4 478.267C21.6 462.533 20.2666 458.4 22.4 434.8C27.3333 380.4 46.6666 333.2 82.2666 288.667C97.7333 269.333 121.067 245.733 158.4 211.733C240 137.467 258.133 118.4 284.667 78.6667C290.933 69.4667 297.867 60 300.267 57.7333C308.4 49.8667 311.867 49.3333 364.667 47.8667C391.067 47.0667 416.933 46 422 45.4667C435.6 43.8667 449.333 43.8667 454.533 45.3333ZM493.467 106.267L502 122.667L496.933 127.6C492.667 132 492 132.267 492 129.867C492 128.4 490.4 122.667 488.533 117.2C485.467 108.4 482 86.6667 484.133 89.0667C484.533 89.6 488.8 97.3333 493.467 106.267ZM512.933 164C514.667 166.4 516 170.4 516 172.933V177.6L510.4 176.667C503.2 175.467 491.067 170.933 489.867 169.067C489.467 168.4 491.867 164.8 495.467 161.2L501.867 154.667L505.867 157.067C508.133 158.4 511.333 161.467 512.933 164Z" fill="white"/>
<path d="M54.8 407.733C44 418.4 51.3333 453.333 68.2666 472.667C75.0666 480.4 90.5333 490.8 101.067 494.667C113.333 499.333 121.333 495.867 121.333 486C121.333 480.667 117.333 476.933 108.4 474C99.6 471.2 87.2 462.133 82.4 455.2C74.8 444.267 72.8 437.6 72.4 423.333C72.1333 410.8 72 409.867 68.6666 407.067C64 402.933 59.2 403.2 54.8 407.733Z" fill="white"/>
<path d="M495.067 461.333C475.867 471.067 451.067 480 433.333 483.333C408.133 488.133 378.133 487.333 355.467 481.2C342.8 477.867 339.2 478 335.333 482C328.267 488.933 332.8 497.2 346.133 501.2C361.733 506.133 378.4 508.4 398.667 508.4C433.067 508.533 462.267 501.333 500.533 483.6C511.2 478.667 512.4 478.4 513.6 480.4C514.267 481.733 518.533 487.6 523.067 493.6C540.4 516.667 569.867 541.867 579.6 541.867C587.333 541.867 592.4 534 589.333 526.533C588.4 524.4 584.667 520.933 580.267 518.267C562.667 507.333 544.8 488.533 531.733 467.2C524.133 454.8 521.2 451.867 516 452.133C514.133 452.267 504.8 456.4 495.067 461.333Z" fill="white"/>
</g>
<defs>
<clipPath id="clip0_64_55">
<rect width="682.667" height="682.667" fill="white"/>
</clipPath>
</defs>
</svg>
