<svg width="354" height="680" viewBox="0 0 354 680" fill="none" xmlns="http://www.w3.org/2000/svg">
<rect x="23.9275" y="247.201" width="102.556" height="383.437" fill="#1CA3EC"/>
<rect x="52.5" y="602.044" width="90.9839" height="60" fill="#1CA3EC"/>
<rect x="101.344" y="270.389" width="50.1737" height="390.111" fill="#1CA3EC"/>
<rect x="143.484" y="309" width="42.0161" height="359.5" fill="#1CA3EC"/>
<rect x="151.518" y="336" width="148.982" height="324.5" fill="#1CA3EC"/>
<rect x="293.5" y="305" width="36" height="333" fill="#1CA3EC"/>
<path d="M134.783 2.14633C65.1826 7.34634 33.5826 27.4797 54.7826 53.213C64.1159 64.413 72.3826 98.2797 72.6493 125.746L72.7826 140.946L63.4493 149.08C48.6493 161.88 31.9826 179.213 25.0493 189.08C16.6493 200.813 7.84928 219.746 3.84927 234.013L0.782608 245.346V416.013V586.68L4.51594 598.413C17.1826 638.946 44.7826 666.413 85.0493 678.946L96.7826 682.546L171.049 683.08C252.116 683.48 259.583 683.08 278.383 676.013C313.983 662.546 341.983 630.813 350.783 593.746C353.449 582.413 353.449 579.746 353.183 411.746C352.783 253.48 352.649 240.813 350.383 233.346C341.449 202.68 326.383 180.28 297.983 154.813C290.783 148.28 283.983 141.08 282.916 138.813C281.583 135.88 281.049 129.746 281.049 118.013C281.183 90.5463 287.316 58.9463 293.583 53.213C304.249 43.613 301.849 29.213 287.983 19.8797C265.983 5.07967 199.049 -2.65367 134.783 2.14633ZM209.449 27.3463C241.183 30.013 272.916 36.6797 267.849 39.4797C263.983 41.613 243.849 45.8797 227.583 48.013C182.116 53.8797 116.649 50.813 85.4493 41.213L78.1159 38.9463L82.6493 37.0797C91.8493 33.213 119.449 28.6797 144.116 26.9463C158.383 25.8797 195.316 26.1463 209.449 27.3463ZM108.116 71.8797C147.983 78.1463 204.649 77.8797 243.849 71.213C261.049 68.413 261.849 68.2797 260.916 69.7463C259.183 72.6797 255.983 101.48 255.983 115.88C255.849 135.213 257.849 146.28 262.649 154.28C264.516 157.613 272.383 165.88 280.116 172.813C308.649 198.68 321.983 219.613 326.783 245.746C328.116 253.746 328.116 254.146 323.583 263.08C306.916 296.28 280.516 322.013 253.449 331.48C246.783 333.88 241.849 334.546 232.116 334.68C219.849 334.68 219.049 334.546 209.449 329.346C196.649 322.546 177.449 303.746 164.383 285.213C143.716 255.746 125.583 241.48 98.1159 232.68C85.0493 228.546 59.8493 227.613 43.5826 230.546C37.1826 231.88 31.5826 232.546 31.1826 232.28C30.1159 231.213 38.3826 214.546 43.9826 206.146C51.3159 195.48 62.9159 183.08 78.2493 169.746C92.6493 157.346 95.5826 152.546 97.4493 137.213C99.3159 122.413 95.8493 91.213 89.9826 71.4797C89.1826 68.5463 89.3159 68.413 92.2493 69.0797C93.9826 69.4797 101.183 70.813 108.116 71.8797ZM87.4493 256.013C107.849 261.213 125.716 274.413 140.783 295.48C172.383 339.88 197.716 358.813 227.449 360.28C257.316 361.88 288.249 347.48 314.516 320.013C321.316 312.946 326.783 306.68 326.783 306.013C326.783 305.213 327.449 304.68 328.116 304.68C329.849 304.68 329.849 558.146 328.116 575.213C325.583 598.546 317.849 614.946 301.183 631.613C293.049 639.746 288.383 643.08 278.516 648.013C257.983 658.146 256.916 658.146 172.916 657.746C100.249 657.346 99.3159 657.213 90.1159 654.146C75.0493 649.213 64.3826 642.546 52.6493 630.813C40.9159 619.08 34.2493 608.413 29.1826 593.346L26.1159 584.013L25.7159 423.213L25.4493 262.413L31.0493 260.28C47.5826 254.013 72.2493 252.146 87.4493 256.013Z" fill="white"/>
<path d="M74.116 331.346C66.516 334.413 61.9826 344.813 64.3826 353.613C68.2493 367.613 87.3159 371.746 96.6493 360.68C103.449 352.546 102.383 341.48 93.9826 334.013C90.1159 330.68 88.2493 330.013 83.0493 330.146C79.5826 330.146 75.5826 330.68 74.116 331.346Z" fill="white"/>
<path d="M181.316 396.546C176.383 401.48 176.116 408.28 180.516 413.346C189.316 423.48 205.583 414.013 201.316 401.08C198.516 392.546 187.849 390.013 181.316 396.546Z" fill="white"/>
<path d="M274.649 473.08C262.649 481.08 262.916 497.213 275.183 504.68C287.049 512.013 302.783 503.08 303.049 488.946C303.183 473.88 286.916 464.813 274.649 473.08Z" fill="white"/>
<path d="M107.849 484.146C100.249 488.146 99.1826 497.213 105.316 503.48C115.049 513.213 130.649 502.68 125.449 489.88C123.716 485.746 118.116 482.013 113.849 482.013C112.516 482.146 109.849 482.946 107.849 484.146Z" fill="white"/>
<path d="M219.183 574.546C216.249 577.08 215.449 578.813 215.449 583.346C215.449 587.88 216.249 589.613 219.183 592.146C228.783 600.28 242.649 592.146 239.583 580.013C237.449 571.48 226.383 568.413 219.183 574.546Z" fill="white"/>
<path d="M124.116 585.88C118.116 589.08 114.383 595.48 114.383 602.68C114.383 613.213 122.383 620.68 133.716 620.68C138.783 620.68 140.916 619.88 144.649 616.68C161.716 601.613 143.983 575.213 124.116 585.88Z" fill="white"/>
</svg>
