<svg width="683" height="683" viewBox="0 0 683 683" fill="none" xmlns="http://www.w3.org/2000/svg">
<path d="M231.333 11.2C226.933 12.2667 224.8 13.4667 224.933 14.8C225.067 15.8667 226.8 24.8 228.533 34.6667C236.8 78 236.667 104.8 228.133 148.8C226.133 159.333 224.8 168.267 225.2 168.533C226.933 169.467 244.133 172.267 244.667 171.733C246 170.4 252.133 137.067 254 121.333C257.6 91.2 256 62.2667 248.667 26.8C246.8 17.7333 245.333 10.1333 245.333 9.86667C245.333 8.93334 238 9.60001 231.333 11.2Z" fill="white"/>
<path d="M436.933 12.2666C428 49.0666 424.933 86.2666 428.133 117.467C429.467 131.333 436.667 170.4 438 171.733C438.667 172.4 455.6 169.733 457.333 168.667C457.867 168.4 456.533 159.6 454.533 149.067C446 105.867 446 78 454.133 34.6666C455.867 24.8 457.6 15.7333 457.733 14.6666C457.867 13.3333 455.867 12.2666 451.333 11.2C440.667 8.66664 437.733 8.93331 436.933 12.2666Z" fill="white"/>
<path d="M128.4 29.6C129.333 52.9334 133.067 72.6667 140.267 92.5334C152.267 125.733 153.733 130.4 156.267 142C158.4 151.333 159.067 161.067 159.6 186.267L160.267 218.533L154.133 233.333C142.533 260.533 137.733 287.333 139.067 315.2C140.133 334.133 142.4 345.467 153.2 383.867C170 442.933 178.533 494.133 180.8 549.333L181.6 570L150.4 587.733C119.2 605.333 113.467 608 106.133 608C90.1333 608 74.6667 623.733 74.6667 640C74.6667 652.667 85.4667 667.2 97.3333 670.533C101.867 671.733 124.133 672 190.667 671.733L278 671.333L286.667 666.533C302 658.133 310.533 642.8 308.933 626.133C308 615.733 305.867 610.8 297.333 599.333C288 586.533 282 573.467 279.2 559.733L276.8 548.133L285.733 477.067L294.8 405.867L300.667 394.133C312.933 369.733 318.4 347.067 319.6 316.667C320.667 285.333 316.667 254.533 308.533 231.733C305.2 222.8 305.2 222.667 307.467 211.067C310.267 195.867 309.467 183.733 304 163.333C300.667 150.667 299.733 144.4 299.467 133.333L299.333 119.333L308.267 100.4C322 71.6001 328.133 49.8667 330.133 22.9334L331.067 10.6667H320.4H309.733L308.8 22.2667C306.8 47.3334 300.933 67.6 288.667 92.0001C280 109.2 277.333 118.533 277.333 130.8C277.333 141.467 280.267 159.067 284 170.8C286.533 178.8 289.2 201.333 287.733 201.333C287.333 201.333 283.2 199.6 278.533 197.333C273.867 195.2 266.8 193.067 263.067 192.533L256 191.6V202.133V212.667L262.933 214.4C271.333 216.4 279.333 221.6 283.6 228.267C287.467 234 292.4 250.133 295.6 267.333C298.533 282.933 298.8 328.4 296.133 342C291.733 364.133 284 382.8 271.067 402.4C262.8 414.8 259.467 417.2 253.733 414.8C250.667 413.467 247.467 408.133 236 386C228.4 370.933 221.6 358.667 221.067 358.667C220.533 358.667 216.133 360.533 211.467 362.933L202.933 367.067L217.333 396C228.933 419.2 232.933 425.867 237.2 429.6C245.333 436.533 255.2 438.933 265.067 436.133C268 435.2 269.333 435.333 269.333 436.267C269.333 437.067 266.267 461.867 262.533 491.2C256.133 541.6 255.733 545.333 257.2 556.933C259.2 573.733 265.067 589.2 275.067 604C287.733 622.667 288.267 623.867 287.6 631.067C287.067 637.867 284.133 642.8 278.133 647.2C274.533 650 272.933 650 188.533 650.4L102.667 650.667L99.3333 647.467C92.4 640.533 97.3333 629.333 107.2 629.333C118.533 629.333 125.6 626.267 161.6 605.867C181.6 594.4 199.067 583.867 200.4 582.4C203.2 579.2 203.333 566.533 201.333 534C197.733 478.933 189.067 430.8 172 371.467C161.6 335.333 160.667 330.133 160.667 306.667C160.667 285.2 162.4 273.6 168.133 255.867C172.4 242.667 183.067 221.733 192 209.467C196.4 203.333 200 198.267 199.733 198.133C199.467 197.867 195.733 194.933 191.467 191.467C186.4 187.467 183.2 185.733 182.667 186.667C182.133 187.467 181.333 180.4 180.933 171.067C179.867 149.333 176 129.067 169.067 110.133C157.067 76.8001 155.6 72.2667 153.2 60.6667C151.733 54.1334 150.267 40.1334 149.733 29.6L148.933 10.6667H138.267H127.6L128.4 29.6Z" fill="white"/>
<path d="M352.533 22.9334C354.533 50 361.067 72.8 374.4 100L383.333 118L383.2 132.667C383.067 144.933 382.267 150 378.533 163.333C374.667 177.2 374.133 181.333 374.133 194.667C374.133 203.067 374.933 212.533 375.867 215.733C377.333 220.8 377.067 222.533 373.467 233.733C365.067 259.867 362 284.133 363.067 315.333C364 346 369.733 369.6 381.867 393.867L387.867 405.733L396.8 477.067L405.733 548.267L403.467 559.467C400.667 574 396.667 582.667 386.133 597.867C375.733 612.8 372.667 621.067 373.6 632.4C374.933 647.733 384.133 661.2 398 668L404.667 671.333L492 671.733C558.267 672 580.8 671.733 585.333 670.4C593.2 668.267 604.133 657.6 606.4 649.867C609.867 638 607.6 628.133 599.067 618.667C593.067 612 584.8 608 576.8 608C569.2 608 563.467 605.467 532.4 587.733L501.333 570V561.333C501.333 516.133 511.867 446.667 527.467 390.667C531.6 375.6 536.4 358 538.133 351.6C548.267 312.533 545.067 272.267 528.533 233.333L522.4 218.533L523.067 186.267C523.6 161.067 524.267 151.333 526.4 142C528.933 130.4 530.4 125.733 542.4 92.5334C549.6 72.9334 553.333 52.9334 554.267 29.6L555.067 10.6667H544.4H533.733L532.933 29.6C532.4 40.1334 530.933 54.1334 529.467 60.6667C527.067 72.2667 525.6 76.8 513.6 110.133C506.667 129.2 502.667 149.467 501.733 171.067C501.333 180.533 500.533 187.467 500 186.667C499.467 185.733 496.267 187.467 491.2 191.467C486.933 194.933 483.2 197.867 482.933 198.133C482.667 198.267 486.267 203.333 490.667 209.467C499.6 221.733 510.267 242.667 514.533 255.867C520.533 274.133 522 285.067 521.867 307.333C521.733 331.333 520.933 335.467 510.667 371.333C493.467 431.067 485.2 476.933 481.333 533.067C479.2 564.8 479.467 579.2 482.4 582.4C486 586.533 553.067 624.133 561.733 626.933C566.133 628.267 572 629.333 574.8 629.333C585.333 629.333 590.533 640.267 583.333 647.467L580 650.667L494.133 650.4C409.733 650 408.133 650 404.533 647.2C398.533 642.8 395.6 637.867 395.067 631.067C394.4 623.867 394.933 622.667 407.6 604C417.6 589.2 423.467 573.733 425.467 556.933C426.8 545.333 426.533 541.467 420.133 491.067C416.4 461.6 413.333 436.933 413.333 436.267C413.333 435.333 414.8 435.333 417.6 436.133C427.733 438.933 437.867 436.667 445.6 429.6C449.733 425.867 454.267 418.267 465.333 396L479.733 367.067L471.2 362.933C466.533 360.533 462.133 358.667 461.6 358.667C461.067 358.667 454.4 370.933 446.667 386C435.333 408.133 432 413.467 428.933 414.8C423.2 417.2 419.867 414.8 411.6 402.4C398.933 383.2 392 366.8 387.2 345.067C384 330.267 383.333 296 385.867 276.667C388.4 257.333 394.4 235.2 398.933 228.4C403.333 221.6 411.2 216.4 419.733 214.4L426.667 212.667V202.133V191.6L419.733 192.533C415.867 193.067 408.8 195.2 404.133 197.333C399.467 199.6 395.333 201.333 394.933 201.333C393.333 201.333 396 179.6 399.067 169.2C405.333 148 406.933 127.733 403.333 114.267C402.267 110.133 398 100 393.867 91.7334C389.733 83.6 384.4 70.6667 382 63.2C377.6 49.8667 373.333 26.8 373.333 16.1334V10.6667H362.533H351.6L352.533 22.9334Z" fill="white"/>
</svg>
