<svg width="683" height="627" viewBox="0 0 683 627" fill="none" xmlns="http://www.w3.org/2000/svg">
<path d="M329.333 0.799992C312 3.73333 306 5.86666 300.267 11.2C292.267 18.4 290.933 30.4 296.533 44.2667C298.667 49.6 299.2 52.2667 298.267 52.6667C297.333 52.8 290.133 54.4 282 56C209.467 70.2667 140.4 117.467 99.4667 180.667C74.2667 219.6 57.8667 265.867 54 309.6L53.0667 320H41.2C23.2 320 16.8 321.867 9.33333 329.2C1.73333 336.533 0 341.6 0 356.8C0 371.067 4.26667 380 14 386L20.4 390L78.2667 390.667L136.133 391.333L129.333 396.533C125.467 399.467 111.733 414.8 98.5333 430.8C85.3333 446.8 74.1333 460.133 73.6 460.533C73.0667 460.8 69.7333 460.267 66.1333 459.067C60.8 457.333 58.6667 457.2 52.5333 458.533C48.5333 459.467 43.4667 461.733 41.3333 463.467C36.8 467.333 18 494.133 14.5333 502C8.8 514.4 13.4667 528 26.4 536.933C59.7333 560.267 153.467 623.2 157.067 624.8C166.667 628.8 179.733 625.733 187.2 617.867C189.067 615.733 195.467 606.8 201.333 598C212.933 580.4 214.8 574.533 212 564.267C211.2 561.067 208.267 556.133 205.6 553.067L200.667 547.6L206 543.067C213.867 536.133 221.333 532.133 232.267 528.933C246.267 524.667 282.267 524.8 314 529.2C350.267 534.133 370 532.4 413.2 520.533C452.533 509.6 471.467 501.6 491.6 487.067C508.533 474.933 568.667 420.667 571.467 415.067C573.2 411.467 574 407.067 573.867 400.267V390.667H616.8H659.733L666.8 386.933C677.6 381.333 681.867 373.6 682.4 358.667C683.067 342.8 681.2 336.8 673.333 329.2C665.733 321.867 659.467 320 641.467 320H629.6L628.667 309.6C627.333 294.933 623.2 273.6 618.533 257.333C613.467 240 604.533 217.467 601.2 214.133C598.133 210.933 591.467 210.8 588 214C584 217.6 584.667 223.467 590.533 237.467C599.467 259.2 606.533 287.333 608.8 310.267L609.733 320L378.667 320.267L147.733 320.667L145.2 323.867C141.733 328.133 142 333.6 145.733 337.067L148.8 340L403.2 340.267L657.6 340.667L660.133 343.867C662 346.267 662.667 349.067 662.667 355.867C662.667 363.6 662.267 365.333 659.6 367.733L656.533 370.667H341.2H25.7333L22.9333 367.6C18.9333 363.333 18.6667 348.533 22.5333 343.867L25.0667 340.667L67.8667 340.267L110.533 339.867L113.333 336.4C116.4 332.4 116.533 330.8 114.533 326.133C112.267 321.333 106.933 320 88.9333 320H73.0667L73.8667 310.933C80 249.6 107.2 192.667 152 148C240.4 59.6 377.2 44.2666 484.133 110.667C510 126.667 537.067 151.467 555.867 176.4C562.133 184.533 566.933 189.733 568.933 190.133C575.867 192 582.533 185.2 580.8 178.267C578.533 168.8 545.467 132.133 523.333 114.267C487.467 85.3333 443.867 64.5333 400.667 56C392.667 54.4 385.333 52.8 384.4 52.6667C383.467 52.2667 384 49.6 386.133 44.2667C394.667 23.0667 387.867 8.93333 366 3.19999C359.2 1.33333 335.2 -0.266675 329.333 0.799992ZM363.333 23.0667C367.867 24.6667 368.667 25.6 369.067 29.0667C369.6 33.7333 366.533 40.2667 361.6 45.6C358.267 49.3333 358 49.3333 341.333 49.3333C324.667 49.3333 324.4 49.3333 321.067 45.6C316.4 40.6667 313.333 34.2667 313.333 29.3333C313.333 24.9333 315.467 23.6 326 21.3333C333.467 19.6 356.933 20.8 363.333 23.0667ZM246.4 402.8C267.867 408.533 287.6 413.333 290 413.333C292.533 413.333 313.333 409.467 336.267 404.667C359.067 399.867 379.467 396 381.6 396C391.333 396 397.867 404.667 394.8 413.6C392.933 418.8 391.867 419.6 372.267 430.133C363.333 434.933 355.333 440 354.667 441.333C352.4 445.467 353.2 449.333 356.8 452.933L360.133 456.267L385.733 455.6L411.333 454.933L442.133 445.733L473.067 436.533L506.8 414.4C525.467 402.133 542.267 391.733 544.267 391.333C549.067 390.133 554.667 395.467 554.667 401.2C554.667 406.4 554.267 406.8 518.533 438.267C484.667 468.133 476 474.8 459.333 483.333C443.6 491.333 406.8 502.8 375.333 509.467C362.8 512.133 327.467 511.733 309.333 508.667C286.667 504.933 243.467 505.067 229.067 509.067C212.933 513.467 201.867 519.733 188.667 532.133L183.333 537.067L136.4 505.067L89.4667 473.2L111.6 446.267C123.733 431.467 135.467 417.6 137.867 415.6C155.333 399.733 180.133 389.867 198.667 391.467C203.467 391.867 224.933 396.933 246.4 402.8ZM298.667 392C294.267 393.467 286.667 393.467 283.333 392C281.6 391.2 284.267 390.933 291.333 390.933C298.667 390.933 300.933 391.333 298.667 392ZM505.2 391.333C504.8 391.6 495.467 397.867 484.533 405.067L464.4 418.267L436.267 426.533C420.667 430.933 407.467 434.667 406.667 434.667C405.867 434.667 407.067 432.267 409.2 429.2C414.8 421.6 416.933 411.333 414.8 402C413.867 398 412.533 394.4 411.867 394C407.467 391.2 414.533 390.667 458.267 390.667C484.4 390.667 505.467 390.933 505.2 391.333ZM76.9333 488.8C179.6 558.4 192 567.067 192.8 570.267C193.467 572.8 191.733 576.4 184.667 587.067C173.733 603.733 171.067 606.667 167.333 606.667C164.667 606.667 42.2667 524.933 35.0667 518.267C33.3333 516.8 32 514.267 32 512.8C32 509.867 49.2 483.6 53.6 479.6C55.0667 478.4 57.0667 477.333 58.1333 477.333C59.2 477.333 67.6 482.533 76.9333 488.8Z" fill="white"/>
</svg>
