<svg width="683" height="683" viewBox="0 0 683 683" fill="none" xmlns="http://www.w3.org/2000/svg">
<g clip-path="url(#clip0_64_35)">
<path d="M312 1.46664C251.867 9.19997 200.533 38.2666 161.867 86.5333C155.733 94.2666 150.667 101.2 150.667 102C150.667 103.333 164.133 113.333 165.867 113.333C166.133 113.333 168.933 109.867 172.133 105.6C204.667 62 251.067 33.2 304.667 23.2C324.667 19.4666 363.6 19.7333 382.667 23.8666C423.733 32.6666 457.333 50.6666 486.8 80C521.2 114 540.667 150.933 548.8 197.333C551.733 213.867 551.733 247.067 548.933 262.667C547.733 268.8 547.067 274.133 547.333 274.4C548.133 275.2 565.467 278.933 566 278.4C566.267 278.133 567.467 270.8 568.667 262C571.733 240.4 570.8 201.2 566.8 182.4C551.467 111.333 506.133 54.6666 438.667 22.9333C399.467 4.39997 351.867 -3.73336 312 1.46664Z" fill="white"/>
<path d="M320 47.4666C246.133 56.5333 186.267 108.267 165.2 181.333C160.533 197.067 158.4 213.467 158.4 232C158.4 274.533 171.333 310.8 198.267 344.4L205.467 353.467L200.933 364.4C198.4 370.4 195.867 376.533 195.333 378C194.533 380.4 193.6 379.733 187.2 372.8C163.6 346.933 146.933 316.4 138.667 283.333C132.933 260.533 131.6 247.867 132.4 221.467C133.333 189.467 138.267 168.267 150.8 141.467C153.6 135.333 155.867 130.133 155.733 130C150 126.4 139.6 121.467 138.667 122C134.267 124.8 120.133 162.8 115.867 183.733C112.4 200.533 111.067 238.8 113.2 256.933C119.467 307.733 141.067 353.6 175.6 389.467L186.8 401.067L183.333 409.6C177.067 424.4 163.067 451.333 153.467 466.933C127.6 508.667 95.4666 542.133 54 570.267C38.2666 581.067 33.3333 588.8 33.3333 602.933C33.3333 612.8 36.2666 619.867 42.8 626.533C52.2666 636 68.1333 639.067 80.4 633.6L86.4 630.933L89.2 638.4C95.6 655.733 112.133 671.6 131.467 679.067L139.333 682L337.867 682.4C554.267 682.8 543.467 683.067 559.333 675.333C573.733 668.267 588.267 652.667 593.467 638.4L596.267 630.8L601.6 633.467C609.067 637.333 621.867 637.2 629.867 633.467C636.667 630.133 644.667 621.867 647.467 615.2C649.733 609.733 649.867 598.8 647.733 591.867C645.467 584.267 638.8 577.2 624.267 567.2C572.267 531.333 530.667 480.267 503.2 418.4L495.6 401.333L504.133 392.267C522.933 372.667 533.733 357.867 545.067 336C552.4 321.867 561.067 300.533 559.867 299.467C558.933 298.8 542.267 293.333 542 293.733C541.733 293.867 539.467 299.733 536.667 306.667C530.667 322.133 519.867 341.467 510.4 354.133C500.267 367.6 488.933 380.133 487.867 378.933C487.467 378.4 485.067 373.067 482.667 366.933C480.267 360.933 477.867 355.6 477.2 355.2C476.533 354.8 479.067 350.8 482.933 346.267C500.667 324.933 512.933 300.533 520.133 271.467C524.133 255.6 525.067 220.933 522 202.4C512.533 145.067 476.133 93.6 426.8 67.6C400.133 53.4666 378.667 48.1333 346.667 47.3333C334.533 47.0666 322.533 47.2 320 47.4666ZM366.667 68.5333C435.2 78.9333 489.867 133.733 502.133 204C505.333 222.667 504.133 253.6 499.6 270.8C493.733 292.933 482 316.533 470 330.267L464.4 336.667L457.867 330.133C444.533 316.933 428.8 307.467 410 301.333C393.067 295.867 388 289.867 388 275.6C388 267.067 388.267 266.533 394.667 258C408.667 239.467 419.467 210.933 420.933 188.533C423.333 152.133 402.267 120.4 366.933 106.933C359.067 103.867 356 103.467 341.333 103.467C326.667 103.467 323.6 103.867 315.733 106.933C302.267 112 292.667 118.267 283.2 128.267C273.467 138.667 265.067 154.533 262.533 167.733C257.733 193.2 268.8 232.667 288 258C294.267 266.267 294.667 267.333 294.667 274.8C294.667 288.533 288.8 295.333 272.933 300.133C254.133 305.733 236.533 316.4 223.2 330.4L217.333 336.4L214.4 332.667C197.733 311.867 185.467 285.2 180.533 258.933C177.867 244.4 177.867 216.533 180.533 201.333C192.8 132.667 249.067 78.2666 318.533 68.1333C330.667 66.2666 353.067 66.5333 366.667 68.5333ZM354.533 124.133C376.667 129.2 394.667 147.467 400 170.533C405.6 194.667 390.533 236.267 368.4 257.6C356.133 269.467 343.867 273.067 330.533 268.667C324.667 266.8 321.2 264.133 312.4 255.333C303.067 245.867 300.533 242.267 294.133 229.2C286 212.4 281.333 195.867 281.333 183.333C281.333 144.8 317.467 115.467 354.533 124.133ZM326 288.133C337.333 292.267 351.067 291.2 365.333 284.8C366.8 284.133 368 285.6 369.6 290.4C370.933 294 373.467 299.2 375.333 302C377.2 304.667 378.667 307.2 378.4 307.333C378.133 307.6 369.733 311.2 359.6 315.333L341.333 322.933L322.667 315.333C312.4 311.067 304 307.067 304 306.4C304 305.733 305.467 303.2 307.333 300.8C309.2 298.4 311.6 293.6 312.8 290.133C314.533 285.2 315.467 284 317.2 284.8C318.4 285.333 322.4 286.8 326 288.133ZM314.267 333.467C328.4 339.2 340.533 344 341.2 344C342 344 355.867 338.533 372.133 331.867C401.067 319.867 401.6 319.733 407.2 321.333C426.133 326.533 451.067 347.867 460.4 366.667C463.2 372.133 468.4 385.067 472.133 395.333C480.667 419.067 500.8 460.133 513.867 480.533C524.133 496.533 537.067 513.733 547.733 525.867L553.6 532.267L542.4 542.8C536.267 548.533 530.933 553.2 530.533 553.333C528.933 553.333 503.733 526.267 492.4 512C476 491.6 463.733 472.533 453.6 451.733L444.667 433.333H435.867H426.933L426.133 440.267C425.733 444.133 423.467 466.8 421.333 490.667C419.067 514.533 416.933 536 416.533 538.267L415.867 542.667H341.333H266.8L266.133 538.267C265.733 536 263.6 514.133 261.333 490C259.2 465.733 256.933 443.2 256.533 439.6L255.733 433.333H246.933L238 433.467L229.067 451.733C218.933 472.667 206.667 492 190.933 511.6C180.267 524.933 153.867 553.333 152.133 553.333C151.733 553.2 146.4 548.533 140.267 542.8L129.2 532.4L136 524.533C153.867 504.133 171.867 477.467 186.133 450.133C196.8 429.6 202.267 417.067 213.2 388C218.133 375.2 224.4 361.2 227.067 357.067C237.2 341.867 255.867 327.2 272.267 321.333C278.667 319.067 279.733 319.067 284 320.8C286.533 322 300.133 327.6 314.267 333.467ZM243.067 510C245.2 532 245.733 541.733 244.667 542.133C243.867 542.533 231.6 542.533 217.467 542.4L191.6 542L198.933 533.333C210.267 520.133 223.867 501.6 232 488.267C236 481.733 239.467 476.8 239.733 477.467C240 478 241.467 492.667 243.067 510ZM464.133 507.867C469.733 515.6 478 526.4 482.533 531.6C487.067 536.933 490.667 541.6 490.667 542C490.667 542.4 478.4 542.667 463.467 542.667H436.133L436.8 538.267C437.333 534.133 442.667 478.8 442.667 476.533C442.667 475.867 445.2 479.467 448.4 484.533C451.467 489.6 458.533 500 464.133 507.867ZM133.733 570.4C108.267 591.333 75.3333 614.933 69.4666 616.4C65.3333 617.467 58.2666 614.4 55.4666 610.533C52.8 606.533 52.6666 598.8 55.4666 594.933C56.5333 593.333 61.2 589.467 65.7333 586.4C78.6666 577.733 94 565.867 105.067 556L115.2 546.933L126.4 557.067L137.6 567.333L133.733 570.4ZM595.333 570.933C600.533 574.933 609.333 581.467 615.067 585.2C627.2 593.467 629.333 596.133 629.333 603.067C629.333 611.6 622.4 617.067 612.667 616C608.133 615.467 572.667 590.267 551.067 572.133L545.333 567.333L556.4 557.2L567.333 546.933L576.667 555.2C581.733 559.733 590.267 566.8 595.333 570.933ZM524.4 575.067C539.067 588.4 552.133 599.2 568.133 611.2L578.4 618.8L577.067 624.267C574 638 562.267 651.867 548.267 658.4L540.667 662L502.4 662.4C460 662.933 451.867 662 428 654.4C414.267 650 367.6 632 368.267 631.333C369.2 630.4 390 622.533 402.933 618.133C423.067 611.333 440.4 607.067 455.733 605.2L469.333 603.6V593.6V583.733L459.067 584.667C434.8 586.8 405.733 594.933 364.933 610.933L341.333 620.133L317.6 610.933C276.533 594.667 248.133 586.8 223.733 584.667L213.333 583.733V593.467V603.333L229.733 605.6C258.533 609.733 284.933 618.533 357.467 648.667C374.667 655.867 388.933 661.867 389.2 662.267C389.6 662.533 334.133 662.533 265.867 662.4L142 662L134.4 658.4C120.267 651.867 108.667 638 105.6 624.267L104.267 618.533L119.067 607.467C134.533 595.867 160.4 574.133 167.2 566.8L171.2 562.667H341.067H510.8L524.4 575.067Z" fill="white"/>
<path d="M217.6 242.933L218 252.667L227.733 253.067L237.333 253.467V243.333V233.333H227.333H217.2L217.6 242.933Z" fill="white"/>
<path d="M444.267 242.933L444.667 252.667L454.4 253.067L464 253.467V243.333V233.333H454H443.867L444.267 242.933Z" fill="white"/>
</g>
<defs>
<clipPath id="clip0_64_35">
<rect width="682.667" height="682.667" fill="white"/>
</clipPath>
</defs>
</svg>
