<svg width="683" height="683" viewBox="0 0 683 683" fill="none" xmlns="http://www.w3.org/2000/svg">
<g clip-path="url(#clip0_26_22)">
<path d="M247.333 54.5334C230.133 57.4667 223.333 63.2 207.6 87.7334C176 137.067 176 137.067 176 145.333C176 154.8 179.6 160.8 187.867 164.933C191.067 166.533 193.867 168.133 194.133 168.4C194.4 168.667 189.333 188.133 182.8 211.733C171.067 253.733 168 268.133 168 281.6V288.267L161.867 282.133C148.533 268.8 130.4 259.467 111.733 256.267C91.4667 252.933 79.8667 256.8 74.5334 268.533C69.4667 279.6 72.2667 306.133 80 321.467C81.4667 324.267 82.6667 327.067 82.6667 327.733C82.6667 328.4 78.9334 330 74.4 331.2C40.8 340.533 14.1333 369.6 4.80002 406.933C-9.06665 462 9.33335 538.8 47.8667 586.933C79.0667 625.867 122.4 638 165.867 620L175.867 615.733L186.933 620C210.533 629.2 194.4 628.533 417.333 628.933C547.733 629.333 623.2 628.933 630.4 628.133C655.333 625.067 674.4 608.667 680.667 584.667C683.6 573.067 683.733 280.267 680.667 262C677.6 243.067 631.6 79.8667 627.333 72.5334C623.467 66.0001 614.933 59.2001 606.933 56.1334C602.933 54.6667 570.267 54.2667 428 54.0001C332.267 53.7334 251.067 54.0001 247.333 54.5334ZM600.4 74.2667C601.2 75.6001 562.267 136.8 557.733 141.6C549.867 149.867 560.133 149.467 369.333 149.067C196.533 148.667 195.333 148.667 194.933 146C194.8 144.4 202.8 130.4 214.933 111.467C233.2 82.8 236 79.2001 241.2 76.4001L247.067 73.3334H423.467C520.533 73.3334 600.133 73.7334 600.4 74.2667ZM571.467 190.933C563.067 221.2 555.067 249.867 553.733 254.667C551.6 262.667 551.467 276.667 551.067 436.267L550.533 609.333H416.8H282.933L294.533 597.6C323.2 568.8 344.667 521.2 350.667 472.933C353.067 454.133 351.733 422.533 348 408C340.133 377.6 322.933 353.467 299.467 340C272.133 324.4 232.267 322.267 200.4 334.667C189.067 339.067 189.067 339.067 194 324.533C201.067 303.333 212.267 285.333 229.6 267.067C236.133 260.267 241.333 253.6 241.333 252.267C241.333 247.733 236.267 242.667 231.6 242.667C228 242.667 225.467 244.667 215.333 254.933C208.667 261.733 199.333 273.067 194.8 280L186.4 292.667L187.067 279.067C187.6 271.6 188.8 261.733 190 257.067C192.667 246.533 211.6 178.267 213.467 172.4L214.8 168L383.067 167.733L551.333 167.333L558 164.267C566.267 160.4 574.8 152.4 580.933 142.267C583.467 138 585.867 134.8 586.267 135.067C586.533 135.467 579.867 160.533 571.467 190.933ZM590.4 551.6C581.333 566.4 572.933 580 571.733 581.6C569.467 584.533 569.333 576.933 569.467 432.667C569.467 349.067 570 276.133 570.533 270.667C571.2 265.2 579.467 232.933 588.933 199.067L606 137.467L606.4 330.933L606.667 524.533L590.4 551.6ZM644.4 198C654 232.133 661.733 262.933 662.533 269.333C664.133 281.867 664.4 571.067 662.8 578L661.867 582L658.533 576.667C656.667 573.733 648.8 560.8 640.933 547.867L626.667 524.267V330.667C626.667 224 626.933 137.2 627.2 137.467C627.467 137.733 635.2 164.933 644.4 198ZM120.4 278C138.267 284.133 153.867 297.867 162 314.8C166.267 323.733 170.133 337.2 169.067 339.867C168.8 340.533 165.067 339.6 160.667 337.867C146 331.733 130.267 327.867 117.2 327.067L104.4 326.267L101.067 320.8C95.8667 312.4 91.8667 300.267 91.0667 290.533C90.1334 279.2 91.2 275.067 95.0667 274.267C100.267 273.2 111.067 274.8 120.4 278ZM126.933 347.2C132.267 348.267 144.133 351.867 153.333 355.333C174.133 363.2 179.333 363.2 200 355.067C219.6 347.333 233.333 344.8 250 345.733C286.667 347.867 312.667 366.267 325.333 398.933C337.2 429.467 335.6 473.867 321.2 515.467C305.067 562.133 280.133 593.733 250 605.467C243.333 608 239.467 608.533 226.667 608.533C209.867 608.667 204.8 607.467 186.267 598.933L176 594.267L164.267 599.733C148.4 607.333 137.067 609.733 122 608.933C102.4 607.867 86.5334 600.133 70 583.333C38.6667 551.467 16.1334 486.933 19.2 437.733C22.4 387.6 47.4667 354.933 88.6667 347.333C101.2 344.933 115.067 344.933 126.933 347.2ZM634.533 573.733L650.533 600.133L645.6 603.2C637.2 608.8 631.733 609.467 603.867 609.067L577.867 608.667L597.067 576.933C607.733 559.467 616.8 545.6 617.467 546.267C618 546.8 625.6 559.2 634.533 573.733Z" fill="white"/>
</g>
<defs>
<clipPath id="clip0_26_22">
<rect width="682.667" height="682.667" fill="white"/>
</clipPath>
</defs>
</svg>
