<svg width="683" height="683" viewBox="0 0 683 683" fill="none" xmlns="http://www.w3.org/2000/svg">
<g clip-path="url(#clip0_64_26)">
<path d="M317.067 2.46663C315.067 3.5333 312.8 5.5333 312 6.99996C311.2 8.46663 310.667 21.8 310.667 40.2V71L278.667 190.467C261.067 256.067 245.733 311.667 244.667 313.8C242 318.867 239.467 320.333 222.667 327.267C187.067 341.933 157.867 363 135.067 390.2C121.467 406.467 112.933 419.667 100.933 443.8C83.8667 477.933 76 488.467 38.6667 526.333C19.4667 545.933 4.80001 561.933 3.20001 565C-0.799991 573.4 -0.399991 587.267 4.26668 595C6.13334 598.333 23.8667 617 43.6 636.467C91.7333 684.333 90 683.533 142 682.733C172.4 682.333 172.8 682.333 180.8 678.6C195.867 671.667 206.8 656.6 208.8 640.333C210 630.2 207.6 622.6 201.067 615.533C194.933 608.867 189.867 606.733 164.4 600.2C148.667 596.2 146.667 595.4 146.667 592.867C146.667 588.6 141.6 583 137.867 583C135.333 583 134.667 582.333 134.667 579.4C134.667 576.467 143.2 567.133 182.667 527.667C214.8 495.4 230.667 478.6 230.667 476.733C230.667 471.667 225.6 467 220.267 467C215.733 467 213.067 469.267 172.533 509.8L129.6 552.6L121.6 551.667C109.2 550.2 99.0667 544.733 86 532.2C79.7333 526.2 74.6667 520.733 74.6667 520.067C74.6667 519.267 77.7333 515.4 81.4667 511.267C92.6667 498.6 106.667 476.867 118.4 453.8C130.933 428.867 140.133 414.467 152.133 401C175.467 374.867 202.933 356.067 236.667 343.133C257.333 335.267 262.4 328.333 270.8 297.133C274 285 277.2 275 277.733 275C279.067 275 341.467 310.867 343.733 313C345.2 314.333 343.333 318.2 334 333.933C316.8 362.733 307.733 373.933 274.4 407.8C246.4 436.067 244 439 244 443.267C244 449 247.733 452.733 253.467 452.733C256.933 452.733 261.333 449 285.467 424.867C314.8 395.667 328.267 380.2 340.133 362.2C344.133 356.2 364.4 321.533 385.333 285.133L423.333 219.133L481.867 219H540.267L538.4 221.933C517.067 254.6 512.533 264.733 501.867 305.933C489.2 354.867 482.4 369.933 440.8 442.067C425.867 467.933 412.667 491 411.467 493.533C406.667 502.867 409.733 519.533 417.467 526.467C421.333 529.933 532.267 594.067 542.667 598.867C558.133 606.067 578.133 602.2 590.667 589.667C600.667 579.667 604 566.6 599.2 555.267C598 552.2 587.6 540.733 571.333 524.333L545.467 498.333L546.267 492.867C547.2 485.8 543.6 481.667 536.667 481.667C532.4 481.667 532 481.267 532 477.933C532 475.4 546.4 449.267 574.667 400.2C598.133 359.533 617.733 324.867 618.133 323.267C620.133 316.067 608.533 309.133 602.533 313.933C601.2 314.867 583.067 345.667 561.867 382.333C540.8 419 523.2 449.533 522.667 450.067C522.133 450.733 516.667 450.333 510.533 449.133C502.4 447.667 495.6 445.133 485.6 440.067C478 436.333 471.467 432.6 471.2 432.067C470.8 431.4 474.667 423.533 479.733 414.6C500.667 377.667 512 349.4 521.333 310.333C529.733 275.4 541.067 250.733 558.933 228.2C562.8 223.4 563.067 223.4 574.933 222.467C591.067 221.267 600.267 218.2 601.867 213.267C603.6 208.467 601.467 202.733 597.333 200.867C594.8 199.667 591.467 199.8 582.667 201.267C570 203.533 552.667 202.733 553.733 199.933C554 199 558.667 182.067 563.867 162.333C569.2 142.467 573.867 125.267 574.133 123.933C574.533 122.733 575.6 121.667 576.667 121.667C581.2 121.667 620.267 132.867 627.733 136.333C655.333 149.133 669.6 183.8 658.8 212.2C657.467 215.933 648.933 231.667 640 247.133C620 281.533 619.867 281.8 623.467 286.6C626.667 290.867 633.867 292.2 637.6 289.4C641.333 286.467 674.933 226.867 678.4 217.133C689.2 186.2 678.667 150.067 652.4 128.2C640.667 118.333 630.533 114.733 566.667 97.6666C533.333 88.8666 504.933 81.2666 503.733 80.8666C501.733 80.3333 501.467 76.6 501.067 44.2L500.667 8.06663L496.267 4.19996L492 0.333298H441.467C392.4 0.333298 390.933 0.466631 387.467 3.1333C384.933 5.1333 384 7.1333 384 10.3333C384 13.5333 384.933 15.5333 387.467 17.5333C390.933 20.2 392.533 20.3333 436.133 20.3333H481.333V47C481.333 67.4 480.933 73.6666 479.733 73.6666C478.8 73.6666 472.267 72.2 465.333 70.3333C450.933 66.4666 446.667 67.1333 443.867 73.8C441.733 79.1333 444 83.9333 449.733 86.2C452 87.2666 476.8 94.2 504.667 101.8C532.533 109.267 555.467 115.533 555.6 115.533C555.733 115.667 535.6 191.267 534 196.333C533.2 199 532.267 199 477.6 199C447.067 199 417.733 198.333 412.4 197.667C391.2 194.867 373.2 185.8 357.067 169.667C348.8 161.267 345.733 156.867 340.933 146.867C331.2 126.733 330.667 122.2 330.667 67.8V20.3333H339.867C351.333 20.3333 355.2 17.8 355.2 10.3333C355.2 1.9333 351.733 0.333298 334.8 0.333298C324.933 0.466631 319.6 0.999964 317.067 2.46663ZM318.533 146.333C329.867 177.267 358.667 203.667 391.733 213.667C397.6 215.533 401.2 217.267 400.933 218.2C398.133 224.867 355.733 295.533 354.667 295.267C353.6 295 284.667 255.533 282.8 254.2C282.533 253.933 289.467 227.4 298.133 195C306.8 162.733 314.267 136.733 314.667 137.267C315.2 137.933 316.933 141.933 318.533 146.333ZM470.933 455.133C481.2 461.133 497.467 467.533 506.4 469L512.133 469.933L511.733 475.4L511.333 481L504.8 481.8C497.733 482.6 494.667 485.267 494.667 490.733C494.667 498.333 500.267 501.667 513.2 501.667H520.8L551.067 532.067C584.8 565.933 585.2 566.6 577.2 574.733C571.333 580.733 562.667 583.8 555.6 582.067C550.8 581 524.267 566.2 447.067 521.4C430.8 511.8 427.067 508.2 429.067 503.267C431.067 497.933 459.333 449.667 460.4 449.667C461.067 449.667 465.733 452.2 470.933 455.133ZM72.6667 546.867C86.4 560.2 95.2 565.8 107.6 569.133C113.867 570.867 115.867 571.933 115.333 573.267C114.933 574.333 114.667 577 114.667 579C114.667 582.867 114.533 582.867 105.867 583.267C98 583.667 96.6667 584.067 94.2667 587.133C92.4 589.8 92 591.8 92.6667 594.867C94 601 98.9333 603 112.4 603C120.933 603 123.867 603.4 124.4 604.867C126 608.867 137.6 613.667 160 619.667C189.467 627.533 191.733 629.533 187.867 643.4C186 650.2 178.4 658.333 171.467 661C166.667 662.867 160.933 663.133 135.2 662.733C106.667 662.333 104.267 662.2 98 659.267C92.9333 656.867 83.3333 648.333 57.6 622.6C38.9333 604.067 22.9333 587.4 21.8667 585.4C17.7333 577.533 18.6667 575.8 39.6 554.733C50.4 543.933 59.4667 535 59.8667 535C60.1333 535 65.8667 540.333 72.6667 546.867Z" fill="white"/>
</g>
<defs>
<clipPath id="clip0_64_26">
<rect width="682.667" height="682.667" fill="white" transform="translate(0 0.333313)"/>
</clipPath>
</defs>
</svg>
